<svg xmlns="http://www.w3.org/2000/svg" width="100" height="100" viewBox="0 0 100 100" stroke="#a42a25">
    <defs>

    <!-- Couleur générique: #706e6b -->
    <g id="unknown-medium" transform="scale(0.16)" stroke="#706e6b"> 
        <g fill="none" fill-rule="evenodd" stroke-width="4" >
            <path d="m100 0c-55.2 0-100 44.8-100 100-5.0495e-15 55.2 44.8 100 100 100s100-44.8 100-100-44.8-100-100-100zm0 12.812c48.13 0 87.19 39.058 87.19 87.188s-39.06 87.19-87.19 87.19-87.188-39.06-87.188-87.19 39.058-87.188 87.188-87.188zm1.47 21.25c-5.45 0.03-10.653 0.737-15.282 2.063-4.699 1.346-9.126 3.484-12.876 6.219-3.238 2.362-6.333 5.391-8.687 8.531-4.159 5.549-6.461 11.651-7.063 18.687-0.04 0.468-0.07 0.868-0.062 0.876 0.016 0.016 21.702 2.687 21.812 2.687 0.053 0 0.113-0.234 0.282-0.937 1.941-8.085 5.486-13.521 10.968-16.813 4.32-2.594 9.808-3.612 15.778-2.969 2.74 0.295 5.21 0.96 7.38 2 2.71 1.301 5.18 3.361 6.94 5.813 1.54 2.156 2.46 4.584 2.75 7.312 0.08 0.759 0.05 2.48-0.03 3.219-0.23 1.826-0.7 3.378-1.5 4.969-0.81 1.597-1.48 2.514-2.76 3.812-2.03 2.077-5.18 4.829-10.78 9.407-3.6 2.944-6.04 5.156-8.12 7.343-4.943 5.179-7.191 9.069-8.564 14.719-0.905 3.72-1.256 7.55-1.156 13.19 0.025 1.4 0.062 2.73 0.062 2.97v0.43h21.598l0.03-2.4c0.03-3.27 0.21-5.37 0.56-7.41 0.57-3.27 1.43-5 3.94-7.81 1.6-1.8 3.7-3.76 6.93-6.47 4.77-3.991 8.11-6.99 11.26-10.125 4.91-4.907 7.46-8.26 9.28-12.187 1.43-3.092 2.22-6.166 2.46-9.532 0.06-0.816 0.07-3.03 0-3.968-0.45-7.043-3.1-13.253-8.15-19.032-0.8-0.909-2.78-2.887-3.72-3.718-4.96-4.394-10.69-7.353-17.56-9.094-4.19-1.062-8.23-1.6-13.35-1.75-0.78-0.023-1.59-0.036-2.37-0.032zm-10.908 103.6v22h21.998v-22h-21.998z"/>
        </g>
    </g>
    <g id="unknown-small" transform="scale(0.12)" stroke="#706e6b"> 
        <g fill="none" fill-rule="evenodd" stroke-width="4" >
            <path id="path2413" d="m100 0c-55.2 0-100 44.8-100 100-5.0495e-15 55.2 44.8 100 100 100s100-44.8 100-100-44.8-100-100-100zm0 12.812c48.13 0 87.19 39.058 87.19 87.188s-39.06 87.19-87.19 87.19-87.188-39.06-87.188-87.19 39.058-87.188 87.188-87.188zm1.47 21.25c-5.45 0.03-10.653 0.737-15.282 2.063-4.699 1.346-9.126 3.484-12.876 6.219-3.238 2.362-6.333 5.391-8.687 8.531-4.159 5.549-6.461 11.651-7.063 18.687-0.04 0.468-0.07 0.868-0.062 0.876 0.016 0.016 21.702 2.687 21.812 2.687 0.053 0 0.113-0.234 0.282-0.937 1.941-8.085 5.486-13.521 10.968-16.813 4.32-2.594 9.808-3.612 15.778-2.969 2.74 0.295 5.21 0.96 7.38 2 2.71 1.301 5.18 3.361 6.94 5.813 1.54 2.156 2.46 4.584 2.75 7.312 0.08 0.759 0.05 2.48-0.03 3.219-0.23 1.826-0.7 3.378-1.5 4.969-0.81 1.597-1.48 2.514-2.76 3.812-2.03 2.077-5.18 4.829-10.78 9.407-3.6 2.944-6.04 5.156-8.12 7.343-4.943 5.179-7.191 9.069-8.564 14.719-0.905 3.72-1.256 7.55-1.156 13.19 0.025 1.4 0.062 2.73 0.062 2.97v0.43h21.598l0.03-2.4c0.03-3.27 0.21-5.37 0.56-7.41 0.57-3.27 1.43-5 3.94-7.81 1.6-1.8 3.7-3.76 6.93-6.47 4.77-3.991 8.11-6.99 11.26-10.125 4.91-4.907 7.46-8.26 9.28-12.187 1.43-3.092 2.22-6.166 2.46-9.532 0.06-0.816 0.07-3.03 0-3.968-0.45-7.043-3.1-13.253-8.15-19.032-0.8-0.909-2.78-2.887-3.72-3.718-4.96-4.394-10.69-7.353-17.56-9.094-4.19-1.062-8.23-1.6-13.35-1.75-0.78-0.023-1.59-0.036-2.37-0.032zm-10.908 103.6v22h21.998v-22h-21.998z"/>
        </g>
    </g>


    <g id="total-medium" transform="scale(0.08) translate(-256.6798,-531.7963)" stroke="#706e6b"> 
        <g fill="none" fill-rule="evenodd" stroke-width="10" >
            <path d="m 340.80927,575.52393 h 198.63281 l 5.27344,66.60156 h -7.42188 q -1.36719,-19.72656 -6.64062,-30.07813 -5.27344,-10.54687 -14.45313,-15.23437 -9.17969,-4.6875 -29.10156,-4.6875 h -90.42969 l 80.66406,103.51562 -91.79687,108.39844 h 100.58594 q 27.34375,0 41.79687,-8.78906 14.45313,-8.78906 21.67969,-36.71875 l 7.42187,1.75781 -11.32812,80.07813 H 340.80927 v -7.03125 L 442.76239,713.02393 340.80927,582.55518 Z" />
        </g>
    </g>
    <g id="total-small" transform="scale(0.06) translate(-256.6798,-501.7963)" stroke="#706e6b"> 
        <g fill="none" fill-rule="evenodd" stroke-width="10" >
            <path d="m 340.80927,575.52393 h 198.63281 l 5.27344,66.60156 h -7.42188 q -1.36719,-19.72656 -6.64062,-30.07813 -5.27344,-10.54687 -14.45313,-15.23437 -9.17969,-4.6875 -29.10156,-4.6875 h -90.42969 l 80.66406,103.51562 -91.79687,108.39844 h 100.58594 q 27.34375,0 41.79687,-8.78906 14.45313,-8.78906 21.67969,-36.71875 l 7.42187,1.75781 -11.32812,80.07813 H 340.80927 v -7.03125 L 442.76239,713.02393 340.80927,582.55518 Z" />
        </g>
    </g>


    <g id="others-medium" transform="scale(0.32)" stroke="#706e6b">
        <g fill="none" fill-rule="evenodd" stroke-width="4" >
            <circle cx="20" cy="50" r="10"/>
            <circle cx="50" cy="50" r="10"/>
            <circle cx="80" cy="50" r="10"/>
        </g>
    </g>
    <g id="others-small" transform="scale(0.24)" stroke="#706e6b">
        <g fill="none" fill-rule="evenodd" stroke-width="4" >
            <circle cx="20" cy="50" r="10"/>
            <circle cx="50" cy="50" r="10"/>
            <circle cx="80" cy="50" r="10"/>
        </g>
    </g>


    <g id="paw-medium" transform="scale(0.024)" stroke="#706e6b" >
        <g fill="none" fill-rule="evenodd" stroke-width="250" transform="translate(0.000000,1232.000000) scale(0.100000,-0.100000)" stroke-linecap="round" stroke-linejoin="round" >
            <path d="M8443 12301 c-725 -171 -1292 -772 -1566 -1661 -128 -415 -184 -930 -142 -1305 82 -741 432 -1322 951 -1583 294 -148 585 -173 859 -76 192 68 451 220 620 364 449 381 769 968 889 1630 41 227 51 342 50 595 0 484 -68 837 -219 1150 -230 476 -594 788 -1027 881 -119 25 -317 27 -415 5z"/>
            <path d="M3820 12255 c-401 -70 -779 -386 -1004 -839 -123 -247 -181 -484 -207 -847 -12 -159 -6 -414 12 -574 103 -908 527 -1673 1166 -2101 128 -86 340 -191 484 -239 102 -34 128 -38 241 -43 150 -6 257 8 388 50 203 65 369 167 525 323 309 309 501 775 546 1323 18 226 -2 562 -51 825 -196 1067 -809 1857 -1621 2091 -162 46 -328 57 -479 31z"/>
            <path d="M11403 8606 c-669 -110 -1251 -571 -1614 -1280 -167 -327 -251 -593 -316 -1007 -23 -148 -27 -204 -27 -374 0 -208 12 -311 55 -479 115 -451 386 -818 723 -981 184 -89 352 -122 541 -105 459 40 868 247 1232 623 401 415 677 989 767 1592 23 150 39 446 32 567 -37 622 -371 1169 -836 1369 -180 77 -378 104 -557 75z"/>
            <path d="M1051 8344 c-435 -73 -801 -377 -936 -779 -48 -142 -88 -345 -10 -530 -62 -671 174 -1429 618 -1985 332 -415 760 -702 1239 -831 403 -108 765 -6 1072 301 274 274 411 674 411 1201 0 205 -10 317 -46 507 -122 652 -492 1276 -999 1685 -233 188 -547 361 -745 410 -156 39 -353 47 -509 21z"/>
            <path d="M6240 5905 c-348 -39 -692 -132 -1031 -281 -518 -229 -1018 -610 -1341 -1024 -697 -894 -1181 -1862 -1378 -2755 -12 -55 -33 -138 -46 -185 -67 -243 -56 -519 31 -760 140 -388 443 -689 818 -815 224 -75 559 -74 932 4 243 50 425 108 941 299 718 267 917 318 1400 363 216 20 255 21 404 10 381 -27 682 -110 1260 -346 512 -209 798 -322 870 -342 720 -204 1435 47 1680 590 107 239 119 628 29 997 -88 359 -349 942 -599 1335 -705 1110 -1208 1727 -1790 2197 -547 441 -1006 650 -1571 713 -159 18 -447 18 -609 0z"/>
        </g>
    </g>
    <g id="paw-small" transform="scale(0.018)" stroke="#706e6b" >
        <g fill="none" fill-rule="evenodd" stroke-width="300" transform="translate(0.000000,1232.000000) scale(0.100000,-0.100000)" stroke-linecap="round" stroke-linejoin="round" >
            <path d="M8443 12301 c-725 -171 -1292 -772 -1566 -1661 -128 -415 -184 -930 -142 -1305 82 -741 432 -1322 951 -1583 294 -148 585 -173 859 -76 192 68 451 220 620 364 449 381 769 968 889 1630 41 227 51 342 50 595 0 484 -68 837 -219 1150 -230 476 -594 788 -1027 881 -119 25 -317 27 -415 5z"/>
            <path d="M3820 12255 c-401 -70 -779 -386 -1004 -839 -123 -247 -181 -484 -207 -847 -12 -159 -6 -414 12 -574 103 -908 527 -1673 1166 -2101 128 -86 340 -191 484 -239 102 -34 128 -38 241 -43 150 -6 257 8 388 50 203 65 369 167 525 323 309 309 501 775 546 1323 18 226 -2 562 -51 825 -196 1067 -809 1857 -1621 2091 -162 46 -328 57 -479 31z"/>
            <path d="M11403 8606 c-669 -110 -1251 -571 -1614 -1280 -167 -327 -251 -593 -316 -1007 -23 -148 -27 -204 -27 -374 0 -208 12 -311 55 -479 115 -451 386 -818 723 -981 184 -89 352 -122 541 -105 459 40 868 247 1232 623 401 415 677 989 767 1592 23 150 39 446 32 567 -37 622 -371 1169 -836 1369 -180 77 -378 104 -557 75z"/>
            <path d="M1051 8344 c-435 -73 -801 -377 -936 -779 -48 -142 -88 -345 -10 -530 -62 -671 174 -1429 618 -1985 332 -415 760 -702 1239 -831 403 -108 765 -6 1072 301 274 274 411 674 411 1201 0 205 -10 317 -46 507 -122 652 -492 1276 -999 1685 -233 188 -547 361 -745 410 -156 39 -353 47 -509 21z"/>
            <path d="M6240 5905 c-348 -39 -692 -132 -1031 -281 -518 -229 -1018 -610 -1341 -1024 -697 -894 -1181 -1862 -1378 -2755 -12 -55 -33 -138 -46 -185 -67 -243 -56 -519 31 -760 140 -388 443 -689 818 -815 224 -75 559 -74 932 4 243 50 425 108 941 299 718 267 917 318 1400 363 216 20 255 21 404 10 381 -27 682 -110 1260 -346 512 -209 798 -322 870 -342 720 -204 1435 47 1680 590 107 239 119 628 29 997 -88 359 -349 942 -599 1335 -705 1110 -1208 1727 -1790 2197 -547 441 -1006 650 -1571 713 -159 18 -447 18 -609 0z"/>
        </g>
    </g>


    
    <g id="money-medium" transform="scale(0.06)" stroke="#706e6b" stroke-width="15" >
        <path d="M303.969,431.104c-46.974,0-86.873-30.505-101.158-72.717h79.638c4.71,0,8.533-3.814,8.533-8.533
                s-3.823-8.533-8.533-8.533h-83.836c-0.896-5.572-1.493-11.246-1.493-17.066c0-2.884,0.205-5.709,0.435-8.533h84.894
                c4.71,0,8.533-3.814,8.533-8.533c0-4.719-3.823-8.533-8.533-8.533h-82.104c11.519-46.573,53.544-81.25,103.624-81.25
                c4.71,0,8.533-3.814,8.533-8.533s-3.823-8.533-8.533-8.533c-59.551,0-109.392,42.238-121.227,98.316h-18.201
                c-4.71,0-8.533,3.814-8.533,8.533c0,4.719,3.823,8.533,8.533,8.533h15.948c-0.196,2.833-0.435,5.649-0.435,8.533
                c0,5.802,0.538,11.468,1.314,17.066h-18.38c-4.71,0-8.533,3.814-8.533,8.533s3.823,8.533,8.533,8.533h21.955
                c14.873,51.761,62.546,89.783,119.026,89.783c4.71,0,8.533-3.814,8.533-8.533C312.502,434.918,308.679,431.104,303.969,431.104z"
        />
        <path d="M353.272,145.064h22.194c4.71,0,8.533-3.814,8.533-8.533c0-4.719-3.823-8.533-8.533-8.533h-10.99
                c23.466-19.208,44.653-54.798,36.521-120.51c-0.529-4.275-4.164-7.483-8.465-7.483c-38.961,0-73.187,18.892-91.2,48.245
                c-7.347-19.677-21.23-35.693-41.069-47.11c-2.645-1.519-5.871-1.519-8.516,0c-19.839,11.417-33.731,27.433-41.069,47.11
                c-18.013-29.362-52.238-48.245-91.2-48.245c-4.309,0-7.944,3.208-8.473,7.483c-8.132,65.712,13.055,101.303,36.521,120.51h-10.982
                c-4.71,0-8.533,3.814-8.533,8.533c0,4.719,3.823,8.533,8.533,8.533h22.194c-56.565,61.258-133.045,190.582-97.744,279.7
                c22.936,57.887,87.309,87.232,191.282,87.223c1.212,0,2.44,0,3.669-0.008c106.303,0.99,171.87-28.654,195.062-87.223
                C486.308,335.646,409.836,206.321,353.272,145.064z M127.116,17.352c38.39,2.884,69.867,27.322,77.922,61.403
                c0.973,4.113,4.813,7.006,9.019,6.545c4.207-0.35,7.526-3.729,7.808-7.944c1.655-25.437,13.141-45.207,34.149-58.826
                c21.008,13.619,32.493,33.381,34.149,58.826c0.273,4.215,3.592,7.594,7.808,7.944c4.258,0.461,8.047-2.423,9.019-6.536
                c8.055-34.089,39.542-58.527,77.923-61.411c6.366,70.695-25.104,99.195-53.8,110.646H180.916
                C152.211,116.555,120.75,88.038,127.116,17.352z M435.145,418.475c-20.342,51.368-80.875,77.027-179.191,76.438
                c-98.674,0.657-158.746-25.07-179.097-76.438c-33.364-84.237,48.783-218.98,105.782-273.411h146.732
                C386.362,199.495,468.509,334.23,435.145,418.475z"/>
    </g>
    <g id="money-small" transform="scale(0.042)" stroke="#706e6b" stroke-width="20" >
        <path d="M303.969,431.104c-46.974,0-86.873-30.505-101.158-72.717h79.638c4.71,0,8.533-3.814,8.533-8.533
                s-3.823-8.533-8.533-8.533h-83.836c-0.896-5.572-1.493-11.246-1.493-17.066c0-2.884,0.205-5.709,0.435-8.533h84.894
                c4.71,0,8.533-3.814,8.533-8.533c0-4.719-3.823-8.533-8.533-8.533h-82.104c11.519-46.573,53.544-81.25,103.624-81.25
                c4.71,0,8.533-3.814,8.533-8.533s-3.823-8.533-8.533-8.533c-59.551,0-109.392,42.238-121.227,98.316h-18.201
                c-4.71,0-8.533,3.814-8.533,8.533c0,4.719,3.823,8.533,8.533,8.533h15.948c-0.196,2.833-0.435,5.649-0.435,8.533
                c0,5.802,0.538,11.468,1.314,17.066h-18.38c-4.71,0-8.533,3.814-8.533,8.533s3.823,8.533,8.533,8.533h21.955
                c14.873,51.761,62.546,89.783,119.026,89.783c4.71,0,8.533-3.814,8.533-8.533C312.502,434.918,308.679,431.104,303.969,431.104z"
        />
        <path d="M353.272,145.064h22.194c4.71,0,8.533-3.814,8.533-8.533c0-4.719-3.823-8.533-8.533-8.533h-10.99
                c23.466-19.208,44.653-54.798,36.521-120.51c-0.529-4.275-4.164-7.483-8.465-7.483c-38.961,0-73.187,18.892-91.2,48.245
                c-7.347-19.677-21.23-35.693-41.069-47.11c-2.645-1.519-5.871-1.519-8.516,0c-19.839,11.417-33.731,27.433-41.069,47.11
                c-18.013-29.362-52.238-48.245-91.2-48.245c-4.309,0-7.944,3.208-8.473,7.483c-8.132,65.712,13.055,101.303,36.521,120.51h-10.982
                c-4.71,0-8.533,3.814-8.533,8.533c0,4.719,3.823,8.533,8.533,8.533h22.194c-56.565,61.258-133.045,190.582-97.744,279.7
                c22.936,57.887,87.309,87.232,191.282,87.223c1.212,0,2.44,0,3.669-0.008c106.303,0.99,171.87-28.654,195.062-87.223
                C486.308,335.646,409.836,206.321,353.272,145.064z M127.116,17.352c38.39,2.884,69.867,27.322,77.922,61.403
                c0.973,4.113,4.813,7.006,9.019,6.545c4.207-0.35,7.526-3.729,7.808-7.944c1.655-25.437,13.141-45.207,34.149-58.826
                c21.008,13.619,32.493,33.381,34.149,58.826c0.273,4.215,3.592,7.594,7.808,7.944c4.258,0.461,8.047-2.423,9.019-6.536
                c8.055-34.089,39.542-58.527,77.923-61.411c6.366,70.695-25.104,99.195-53.8,110.646H180.916
                C152.211,116.555,120.75,88.038,127.116,17.352z M435.145,418.475c-20.342,51.368-80.875,77.027-179.191,76.438
                c-98.674,0.657-158.746-25.07-179.097-76.438c-33.364-84.237,48.783-218.98,105.782-273.411h146.732
                C386.362,199.495,468.509,334.23,435.145,418.475z"/>
    </g>

    </defs>
</svg>