<?xml version="1.0" encoding="UTF-8" standalone="no"?>
<!DOCTYPE svg PUBLIC "-//W3C//DTD SVG 1.1//EN"
  "http://www.w3.org/Graphics/SVG/1.1/DTD/svg11.dtd">
<svg width="256px" height="256px" viewBox="0 0 256 256" version="1.1" xmlns="http://www.w3.org/2000/svg" xmlns:xlink="http://www.w3.org/1999/xlink" preserveAspectRatio="xMidYMid">
	<g>
		<rect fill="white" x="0" y="0" rx="20" ry="20" width="256" height="256" > </rect>
		<rect fill="Navy" x="1" y="1" rx="0" ry="0" width="85" height="254" > </rect>
        <rect fill="red" x="170" y="1" rx="0" ry="0" width="85" height="254" > </rect>

		<path d="M106.553203,159.610976 C114.801129,168.204994 126.284107,173.534815 138.983873,173.534815 C155.865892,173.534815 170.594851,164.121105 178.438396,150.146262 C185.254593,153.191874 192.799405,154.885905 200.737669,154.885905 C231.186506,154.885905 255.871995,129.985475 255.871995,99.2706935 C255.871995,68.5522694 231.186506,43.651839 200.737669,43.651839 C197.021731,43.651839 193.389583,44.0234329 189.877657,44.7338328 C182.970383,32.4129469 169.807947,24.0885163 154.700107,24.0885163 C148.375726,24.0885163 142.393793,25.5493901 137.067615,28.1469039 C130.065621,11.6765534 113.751923,0.127999726 94.7387049,0.127999726 C74.9385822,0.127999726 58.0638501,12.6565411 51.5864595,30.2271008 C48.7557888,29.6259931 45.8231119,29.3126885 42.8139304,29.3126885 C19.23958,29.3126885 0.127998772,48.6209959 0.127998772,72.4430755 C0.127998772,88.4070383 8.71473094,102.34545 21.4727861,109.802829 C18.8461277,115.846693 17.3852539,122.517167 17.3852539,129.53009 C17.3852539,156.926028 39.6262381,179.134225 67.0586069,179.134225 C83.1646497,179.134225 97.4782987,171.476477 106.553203,159.610976"
        	fill="#00A1E0" transform="translate(127.999997, 127.999997) scale(.8, -.8) translate(-127.999997, -89.631112) "></path>

        <circle cx="100" cy="125" r="20" fill="none" stroke="white" stroke-width="5" ></circle>
        <circle cx="160" cy="125" r="20" fill="none" stroke="white" stroke-width="5" ></circle>

        <path d="M 60 120 L 80 120 M 120 120 L 140 120 M 180 120 L 200 120"
             stroke="white" stroke-width="5" > </path>
    </g>
</svg>